<?xml version="1.0" encoding="utf-8"?>
<!-- Generator: Adobe Illustrator 23.0.1, SVG Export Plug-In . SVG Version: 6.00 Build 0)  -->
<svg version="1.1" id="Шар_1" xmlns="http://www.w3.org/2000/svg" xmlns:xlink="http://www.w3.org/1999/xlink" x="0px" y="0px"
	 viewBox="0 0 18 16" style="enable-background:new 0 0 18 16;" xml:space="preserve">
<style type="text/css">
	.st0{fill:#1D1D1B;}
</style>
<path class="st0" d="M1.8,3.2h14.4c0.3,0,0.6-0.1,0.8-0.4c0.2-0.2,0.4-0.5,0.4-0.8c0-0.3-0.1-0.6-0.4-0.8c-0.2-0.2-0.5-0.4-0.8-0.4
	H1.8C1.5,0.8,1.2,0.9,1,1.2C0.7,1.4,0.6,1.7,0.6,2c0,0.3,0.1,0.6,0.4,0.8C1.2,3.1,1.5,3.2,1.8,3.2z M16.2,6.8H1.8
	C1.5,6.8,1.2,6.9,1,7.2C0.7,7.4,0.6,7.7,0.6,8c0,0.3,0.1,0.6,0.4,0.8c0.2,0.2,0.5,0.4,0.8,0.4h14.4c0.3,0,0.6-0.1,0.8-0.4
	c0.2-0.2,0.4-0.5,0.4-0.8c0-0.3-0.1-0.6-0.4-0.8C16.8,6.9,16.5,6.8,16.2,6.8z M16.2,12.8H1.8c-0.3,0-0.6,0.1-0.8,0.4
	c-0.2,0.2-0.4,0.5-0.4,0.8c0,0.3,0.1,0.6,0.4,0.8c0.2,0.2,0.5,0.4,0.8,0.4h14.4c0.3,0,0.6-0.1,0.8-0.4c0.2-0.2,0.4-0.5,0.4-0.8
	c0-0.3-0.1-0.6-0.4-0.8C16.8,12.9,16.5,12.8,16.2,12.8z"/>
</svg>
